<svg version="1.0" id="katman_1" xmlns="http://www.w3.org/2000/svg" xmlns:xlink="http://www.w3.org/1999/xlink" x="0px" y="0px" style="enable-background:new 0 0 560 400;" xml:space="preserve" viewBox="37 119 486 162">
<style type="text/css">
	.st0{fill-rule:evenodd;clip-rule:evenodd;fill:#E60012;}
	.st1{fill-rule:evenodd;clip-rule:evenodd;fill:#FFFFFF;}
</style>
<path class="st0" d="M37,119h486v162H37V119z"/>
<path class="st1" d="M126.9,251.1c-32.5,0-54.2-23.1-54.2-51c0-27.9,21.8-51.2,54.2-51.2h306.3c32.4-0.1,54.2,23.2,54.2,51.2  s-21.7,51-54.2,51H126.9L126.9,251.1z M127,161.5c-25.7,0-41.5,17.3-41.5,38.5c0,21.3,15.7,38.6,41.5,38.5h306  c25.8,0.1,41.5-17.3,41.5-38.5c0-21.3-15.8-38.5-41.5-38.5L127,161.5z M449.5,179.4c2.3,0,3.5,0.8,3.5,2.4c0,1.1-0.7,1.9-1.8,2.2  l1.8,3.7h-2.2l-1.6-3.4h-1v3.4h-2v-8.2H449.5z M449.3,176.2c-4.1,0-7.4,3.3-7.4,7.4c0,4.1,3.3,7.4,7.4,7.4s7.4-3.3,7.4-7.4  C456.7,179.6,453.4,176.2,449.3,176.2z M455.3,183.7c0,3.3-2.7,6-6,6s-6-2.7-6-6c0-3.3,2.7-6,6-6S455.3,180.3,455.3,183.7z   M448.3,183.1h1c1.1,0,1.7-0.3,1.7-1.2c0-0.9-0.6-1.2-1.8-1.2h-0.9V183.1z M281,203.1c0-2.8,0-4.7,1-6.3c1.1-2,3.2-2.9,5.1-2.9h0  c1.9,0,4,0.9,5.1,2.9c0.9,1.6,1,3.5,0.9,6.3L281,203.1L281,203.1z M293,212.8c0,0,0,0.1,0,1.9c0,5.8-3.8,7.1-6,7.1  c-2.1,0-6.1-1.3-6.1-7.1c0-1.8,0-6.6,0-6.6s27.2,0,27.2,0c0-9.9-9.6-18.1-21.3-18.1c-11.8,0-21.3,8-21.3,18c0,9.9,9.5,18,21.3,18  c9.8,0,18-5.6,20.5-13.1L293,212.8L293,212.8z M338.5,190.5c5.4-0.2,16.4,3.4,16.3,16c0,2.2,0,17.4,0,17.4h-14.4v-21  c0-2.8-2.7-5.9-6.6-5.9c-3.9,0-6.9,3.1-6.9,5.9c0,1.4,0,21,0,21h-14.4l0-32l14.4,0c0,0,0,2.6,0,3.4  C329.7,192.7,333.7,190.6,338.5,190.5L338.5,190.5z M221,190.5c5.4-0.2,16.4,3.4,16.3,16c0,2.2,0,17.4,0,17.4h-14.4v-21  c0-2.8-2.7-5.9-6.6-5.9c-3.9,0-6.9,3.1-6.9,5.9c0,1.4,0,21,0,21h-14.4l0-32l14.4,0c0,0,0,2.6,0,3.4  C212.2,192.7,216.2,190.6,221,190.5L221,190.5z M386,175.9h14.3V224h-14.3l0-1.9c-5.5,3.5-11.8,3.5-16.6,1.2  c-1.3-0.6-9.9-4.7-9.9-15.9c0-8.4,8-17.7,18.4-16.7c3.4,0.3,5.9,1.6,8.2,2.9C386,186.2,386,175.9,386,175.9L386,175.9z M386.1,207.8  v-5.7c0-4.9-3.4-6.2-5.7-6.2c-2.3,0-5.7,1.3-5.7,6.2l0,5.7l0,5.7c0,4.9,3.4,6.2,5.7,6.2c2.3,0,5.7-1.3,5.7-6.2L386.1,207.8z   M431.9,207.7l0,6.8c0,5.1-3,7.2-5.9,7.2c-2.9,0-5.9-2.1-5.9-7.2l0-6.9c0,0,0-4.7,0-6.7c0-5.1,3-7.2,5.9-7.2c2.9,0,5.9,2.1,5.9,7.2  C431.9,202.9,431.9,206.5,431.9,207.7L431.9,207.7L431.9,207.7z M426.1,189.8c-11.7,0-21.1,8-21.1,18c0,9.9,9.5,18,21.1,18  c11.7,0,21.1-8,21.1-18C447.2,197.8,437.8,189.8,426.1,189.8z M172.6,185.7v-9.8h14.5v9.8H172.6z M172.6,224v-32l14.5,0v32  L172.6,224L172.6,224z M245.2,224l0-31.9h-7.9v-4.7l7.9,0l0-6.5h14.5v6.5h7.8v4.8h-7.8l0,31.9H245.2L245.2,224z M113.8,224l0-48.1  h15l20.7,33.5l0-33.5h14.9V224h-14.8l-20.8-33.5V224H113.8z"/>
</svg>